<!-- icon666.com - MILLIONS vector ICONS FREE --><svg version="1.1" id="Capa_1" xmlns="http://www.w3.org/2000/svg" xmlns:xlink="http://www.w3.org/1999/xlink" x="0px" y="0px" viewBox="0 0 512 512" style="enable-background:new 0 0 512 512;" xml:space="preserve"><g><g><path d="M328.055,145.727c-27.846,0-50.5,22.654-50.5,50.5s22.654,50.5,50.5,50.5c27.846,0,50.5-22.654,50.5-50.5 S355.901,145.727,328.055,145.727z M328.055,231.727c-19.575,0-35.5-15.925-35.5-35.5s15.925-35.5,35.5-35.5 c19.575,0,35.5,15.925,35.5,35.5S347.63,231.727,328.055,231.727z"></path></g></g><g><g><path d="M504.5,377.304c-4.142,0-7.5,3.358-7.5,7.5V438.5H96.333c-4.142,0-7.5,3.358-7.5,7.5c0,4.142,3.358,7.5,7.5,7.5H462.5v15 h-413v-15H64c4.142,0,7.5-3.358,7.5-7.5c0-4.142-3.358-7.5-7.5-7.5H15V97.984c0-4.142-3.358-7.5-7.5-7.5S0,93.842,0,97.984V446 c0,4.142,3.358,7.5,7.5,7.5h27V476c0,4.142,3.358,7.5,7.5,7.5h428c4.142,0,7.5-3.358,7.5-7.5v-22.5h27c4.142,0,7.5-3.358,7.5-7.5 v-61.196C512,380.662,508.642,377.304,504.5,377.304z"></path></g></g><g><g><path d="M504.5,28.5H7.5C3.358,28.5,0,31.858,0,36v30c0,4.142,3.358,7.5,7.5,7.5S15,70.142,15,66V43.5h482v309.554 c0,4.142,3.358,7.5,7.5,7.5c4.142,0,7.5-3.358,7.5-7.5V36C512,31.858,508.642,28.5,504.5,28.5z"></path></g></g><g><g><g><path d="M474.5,58.5h-437c-4.142,0-7.5,3.358-7.5,7.5v350c0,4.142,3.358,7.5,7.5,7.5l304.09,0.004 c2.103,0,4.001-0.868,5.363-2.262l132.85-132.85c1.407-1.406,2.197-3.314,2.197-5.303V66C482,61.858,478.642,58.5,474.5,58.5z M77.413,121.869h71v19h-71V121.869z M77.413,175.869h71v19h-71V175.869z M77.413,257.391h85v111h-85V257.391z M62.413,408.5H45 v-335h17.413V408.5z M338.481,408.5H310v-64.496h92.978L338.481,408.5z M417.977,329.004H302.5c-4.142,0-7.5,3.358-7.5,7.5V408.5 h-89.05v-91.866h224.397L417.977,329.004z M467,279.982l-21.652,21.652H205.95v-25H467V279.982z M420.5,245.167h26.33v16.467 H205.95v-156.15h240.88v1.683H420.5c-4.142,0-7.5,3.358-7.5,7.5v123C413,241.809,416.358,245.167,420.5,245.167z M467,261.634 h-5.17v-16.467H467V261.634z M467,230.167c-0.001,0-0.014,0-0.034,0c-0.024,0-0.063,0-0.111,0c0.047,0,0.083,0,0.107,0H428v-108 h39V230.167z M467,107.167h-5.17v-9.183c0-4.142-3.358-7.5-7.5-7.5H198.45c-4.142,0-7.5,3.358-7.5,7.5V408.5H77.413v-25.109h92.5 c4.142,0,7.5-3.358,7.5-7.5v-126c0-4.142-3.358-7.5-7.5-7.5h-92.5v-32.522h78.5c4.142,0,7.5-3.358,7.5-7.5v-34 c0-4.142-3.358-7.5-7.5-7.5h-78.5v-5h78.5c4.142,0,7.5-3.358,7.5-7.5v-34c0-4.142-3.358-7.5-7.5-7.5h-78.5V73.5H467V107.167z"></path><path d="M454.364,230.164c0.024,0,0.063,0,0.111,0C454.424,230.164,454.389,230.164,454.364,230.164z"></path><path d="M460.665,230.165c2.58,0.001,5.158,0.001,6.027,0.001C465.822,230.167,463.243,230.166,460.665,230.165z"></path><path d="M454.638,230.164c0.87,0,3.448,0.001,6.027,0.001C458.085,230.165,455.507,230.164,454.638,230.164z"></path></g></g></g></svg>